<svg xmlns="http://www.w3.org/2000/svg" width="15.965" height="15.765" viewBox="0 0 15.965 15.765"><defs><style>.a{fill:#fff;stroke:#fff;stroke-width:0.5px;}</style></defs><g transform="translate(-330.151 -457.678)"><path class="a" d="M15.354,6.64h0L9.125.412a1.405,1.405,0,0,0-1.988,0L.914,6.635l-.006.006a1.4,1.4,0,0,0,.935,2.394l.043,0h.248v4.582a1.647,1.647,0,0,0,1.645,1.645H6.215a.447.447,0,0,0,.447-.447V11.225a.751.751,0,0,1,.751-.75H8.85a.751.751,0,0,1,.75.75v3.593a.447.447,0,0,0,.447.447h2.436a1.647,1.647,0,0,0,1.645-1.645V9.038h.23a1.406,1.406,0,0,0,.995-2.4ZM14.72,7.994a.508.508,0,0,1-.361.15h-.677a.447.447,0,0,0-.447.447v5.03a.751.751,0,0,1-.75.75H10.495V11.225A1.647,1.647,0,0,0,8.85,9.581H7.413a1.647,1.647,0,0,0-1.645,1.645v3.146H3.779a.751.751,0,0,1-.75-.75V8.591a.447.447,0,0,0-.447-.447H1.895a.51.51,0,0,1-.352-.872h0L7.77,1.044a.511.511,0,0,1,.722,0l6.225,6.225,0,0A.512.512,0,0,1,14.72,7.994Zm0,0" transform="translate(330.002 457.928)"/></g></svg>